<svg width="18" height="17" viewBox="0 0 18 17" fill="none" xmlns="http://www.w3.org/2000/svg">
<path d="M7.32236 1.79742C7.85046 0.172089 10.1499 0.17209 10.678 1.79742L11.3766 3.94765C11.6128 4.67452 12.2901 5.16664 13.0544 5.16664H15.3153C17.0243 5.16664 17.7348 7.35351 16.3522 8.35802L14.5232 9.68693C13.9048 10.1362 13.6461 10.9324 13.8823 11.6593L14.5809 13.8095C15.109 15.4349 13.2488 16.7864 11.8662 15.7819L10.0371 14.453C9.41879 14.0038 8.58154 14.0038 7.96322 14.453L6.13413 15.7819C4.75154 16.7864 2.89128 15.4349 3.41938 13.8095L4.11804 11.6593C4.35421 10.9324 4.09548 10.1362 3.47717 9.68693L1.64808 8.35802C0.26549 7.35351 0.976046 5.16664 2.68502 5.16664H4.9459C5.71018 5.16664 6.38753 4.67452 6.62371 3.94765L7.32236 1.79742Z" fill="#FF8A00"/>
</svg>
